<?xml version="1.0" encoding="utf-8"?>
<!-- Generator: Adobe Illustrator 27.2.0, SVG Export Plug-In . SVG Version: 6.00 Build 0)  -->
<svg version="1.1" id="레이어_1_사본" xmlns="http://www.w3.org/2000/svg" xmlns:xlink="http://www.w3.org/1999/xlink" x="0px"
	 y="0px" viewBox="0 0 510.24 141.73" style="enable-background:new 0 0 510.24 141.73;" xml:space="preserve">
<style type="text/css">
	.st0{fill:#3C6712;}
	.st1{fill:#C4EE62;}
	.st2{fill:#FF8E12;}
</style>
<path class="st0" d="M3.46,93.95c-0.61-4.29-0.34-8.68,0-13c0.65-8.21,1.97-11.07,2.67-16.74c1.33-10.74,4.67-18.13,13.17-26.7
	c6.01-6.06,11.93-12.76,17.78-18.97c4.37-4.64,8.95-8.34,15.08-10.55c1.78-0.64,3.45-1.7,5.31-2.05c1.8-0.34,3.68-0.25,5.5,0
	c6.27,0.87,12.41,2.36,18.61,3.59c3.77,0.75,7.46,2,11.26,2.43c10.1,1.16,18.35,5.16,24.02,13.94
	c8.23,12.75,12.13,26.75,13.19,41.64c0.18,2.49-0.09,8.66-0.15,9.07c-0.99,6.13-2.29,12.13-4.99,17.83
	c-3.68,7.76-8.77,14.35-14.81,20.42c-4.54,4.56-9.31,8.4-14.27,12.19c-7.38,5.63-15.77,8.6-25.2,8.3
	c-4.49-0.14-9.03,0.21-13.52,0.27c-0.73,0.01-7.43,0.27-8.95,0.19c-6.58-0.33-11-2.07-15.3-5.18c-7.76-5.62-14.87-11.14-20.53-19.14
	c-3.12-4.41-6.97-7.76-8.02-13.33C4.11,97.22,3.6,94.94,3.46,93.95z"/>
<path class="st1" d="M58.8,126.74c-14.65,0-35.18-5.68-43.14-21.22c-2.3-4.48-2.86-9.38-3.92-14.4c-1.48-7.09-0.63-14.62,0.4-21.74
	c0.91-6.23,4.17-11.52,7.05-16.95c2.94-5.55,7.15-10.14,11.94-14.11c13.91-11.55,22.44-22.3,42.5-17.28
	c5.07,1.27,11.38,2.34,16.11,4.4c6.2,2.7,11.18,5.78,16.83,9.54c9.42,6.27,13.55,15.89,16.01,26.62c2.36,10.27,1.43,20.1-2.03,29.88
	c-3.17,8.99-10.14,14.88-16.96,20.86c-7.85,6.86-18.21,9.97-27.94,12.52C70,126.33,59.05,126.74,58.8,126.74z"/>
<path class="st0" d="M129.17,93.95c-0.61-4.29-0.34-8.68,0-13c0.65-8.21,1.97-11.07,2.67-16.74c1.33-10.74,4.67-18.13,13.17-26.7
	c6.01-6.06,11.93-12.76,17.78-18.97c4.37-4.64,8.95-8.34,15.08-10.55c1.78-0.64,3.45-1.7,5.31-2.05c1.8-0.34,3.68-0.25,5.5,0
	c6.27,0.87,12.41,2.36,18.61,3.59c3.77,0.75,7.46,2,11.26,2.43c10.1,1.16,18.35,5.16,24.02,13.94
	c8.23,12.75,12.13,26.75,13.19,41.64c0.18,2.49-0.09,8.66-0.15,9.07c-0.99,6.13-2.29,12.13-4.99,17.83
	c-3.68,7.76-8.77,14.35-14.81,20.42c-4.54,4.56-9.31,8.4-14.27,12.19c-7.38,5.63-15.77,8.6-25.2,8.3
	c-4.49-0.14-9.03,0.21-13.52,0.27c-0.73,0.01-7.43,0.27-8.95,0.19c-6.58-0.33-11-2.07-15.3-5.18c-7.76-5.62-14.87-11.14-20.53-19.14
	c-3.12-4.41-6.97-7.76-8.02-13.33C129.82,97.22,129.31,94.94,129.17,93.95z"/>
<path class="st1" d="M184.51,126.74c-14.65,0-35.18-5.68-43.14-21.22c-2.3-4.48-2.86-9.38-3.92-14.4
	c-1.48-7.09-0.63-14.62,0.4-21.74c0.91-6.23,4.17-11.52,7.05-16.95c2.94-5.55,7.15-10.14,11.94-14.11
	c13.91-11.55,22.44-22.3,42.5-17.28c5.07,1.27,11.38,2.34,16.11,4.4c6.2,2.7,11.18,5.78,16.83,9.54
	c9.42,6.27,13.55,15.89,16.01,26.62c2.36,10.27,1.43,20.1-2.03,29.88c-3.17,8.99-10.14,14.88-16.96,20.86
	c-7.85,6.86-18.21,9.97-27.94,12.52C195.71,126.33,184.76,126.74,184.51,126.74z"/>
<path class="st0" d="M253.79,93.95c-0.61-4.29-0.34-8.68,0-13c0.65-8.21,1.97-11.07,2.67-16.74c1.33-10.74,4.67-18.13,13.17-26.7
	c6.01-6.06,11.93-12.76,17.78-18.97c4.37-4.64,8.95-8.34,15.08-10.55c1.78-0.64,3.45-1.7,5.31-2.05c1.8-0.34,3.68-0.25,5.5,0
	c6.27,0.87,12.41,2.36,18.61,3.59c3.77,0.75,7.46,2,11.26,2.43c10.1,1.16,18.35,5.16,24.02,13.94
	c8.23,12.75,12.13,26.75,13.19,41.64c0.18,2.49-0.09,8.66-0.15,9.07c-0.99,6.13-2.29,12.13-4.99,17.83
	c-3.68,7.76-8.77,14.35-14.81,20.42c-4.54,4.56-9.31,8.4-14.27,12.19c-7.38,5.63-15.77,8.6-25.2,8.3
	c-4.49-0.14-9.03,0.21-13.52,0.27c-0.73,0.01-7.43,0.27-8.95,0.19c-6.58-0.33-11-2.07-15.3-5.18c-7.76-5.62-14.87-11.14-20.53-19.14
	c-3.12-4.41-6.97-7.76-8.02-13.33C254.44,97.22,253.93,94.94,253.79,93.95z"/>
<path class="st1" d="M309.13,126.74c-14.65,0-35.18-5.68-43.14-21.22c-2.3-4.48-2.86-9.38-3.92-14.4
	c-1.48-7.09-0.63-14.62,0.4-21.74c0.91-6.23,4.17-11.52,7.05-16.95c2.94-5.55,7.15-10.14,11.94-14.11
	c13.91-11.55,22.44-22.3,42.5-17.28c5.07,1.27,11.38,2.34,16.11,4.4c6.2,2.7,11.18,5.78,16.83,9.54
	c9.42,6.27,13.55,15.89,16.01,26.62c2.36,10.27,1.43,20.1-2.03,29.88c-3.17,8.99-10.14,14.88-16.96,20.86
	c-7.85,6.86-18.21,9.97-27.94,12.52C320.33,126.33,309.38,126.74,309.13,126.74z"/>
<path class="st0" d="M379.66,93.95c-0.61-4.29-0.34-8.68,0-13c0.65-8.21,1.97-11.07,2.67-16.74c1.33-10.74,4.67-18.13,13.17-26.7
	c6.01-6.06,11.93-12.76,17.78-18.97c4.37-4.64,8.95-8.34,15.08-10.55c1.78-0.64,3.45-1.7,5.31-2.05c1.8-0.34,3.68-0.25,5.5,0
	c6.27,0.87,12.41,2.36,18.61,3.59c3.77,0.75,7.46,2,11.26,2.43c10.1,1.16,18.35,5.16,24.02,13.94
	c8.23,12.75,12.13,26.75,13.19,41.64c0.18,2.49-0.09,8.66-0.15,9.07c-0.99,6.13-2.29,12.13-4.99,17.83
	c-3.68,7.76-8.77,14.35-14.81,20.42c-4.54,4.56-9.31,8.4-14.27,12.19c-7.38,5.63-15.77,8.6-25.2,8.3
	c-4.49-0.14-9.03,0.21-13.52,0.27c-0.73,0.01-7.43,0.27-8.95,0.19c-6.58-0.33-11-2.07-15.3-5.18c-7.76-5.62-14.87-11.14-20.53-19.14
	c-3.12-4.41-6.97-7.76-8.02-13.33C380.31,97.22,379.8,94.94,379.66,93.95z"/>
<path class="st1" d="M435,126.74c-14.65,0-35.18-5.68-43.14-21.22c-2.3-4.48-2.86-9.38-3.92-14.4c-1.48-7.09-0.63-14.62,0.4-21.74
	c0.91-6.23,4.17-11.52,7.05-16.95c2.94-5.55,7.15-10.14,11.94-14.11c13.91-11.55,22.44-22.3,42.5-17.28
	c5.07,1.27,11.38,2.34,16.11,4.4c6.2,2.7,11.18,5.78,16.83,9.54c9.42,6.27,13.55,15.89,16.01,26.62c2.36,10.27,1.43,20.1-2.03,29.88
	c-3.17,8.99-10.14,14.88-16.96,20.86c-7.85,6.86-18.21,9.97-27.94,12.52C446.2,126.33,435.25,126.74,435,126.74z"/>
<g>
	<path class="st2" d="M189.51,39.33c1.99,0.02,4.21,0.28,6.16,0.66c6.7,1.33,8.24,3.19,11.15,7.76c2.15,3.39,3.08,6.1,3.93,9.69
		c1.06,4.46-1.39,8.8-4.83,11.42c-5.88,4.47-11.55,8.57-17.45,13.01c-2.39,1.8-4.82,3.69-7.23,5.46c-3.02,2.22-3.09,5.34,0.03,7.2
		c1.19,0.71,4.51,2.16,6.79,2.05c5.49-0.26,12.25-3.06,16.45-5.81c0.68-0.45,2.18-2.64,2.69-3.29c1.91-2.46,4.62-2.61,6.53-1.23
		c1.8,1.3,1.95,4.37,0.32,6.82c-1.77,2.65-3.98,5.17-6.73,6.6c-5.94,3.1-11.13,6.04-20.08,5.62c-7.39-0.35-14.9-4.38-16.64-10.93
		c-0.93-3.48-1.15-6.56-1.14-10.17c0.02-6.56,0.52-13.75,0.79-20.31c0.23-5.65,1.04-10.83,3.98-15.74
		C177.4,42.85,181.2,39.27,189.51,39.33z M179.38,78.82c2.08-2.15,3.65-3.33,5.69-4.95c5.11-4.03,10.06-7.6,15.21-11.79
		c0.94-0.77,1.82-1.99,1.66-3.08c-0.85-5.73-4.31-10.19-9.62-10.8c-3.85-0.44-7.77,0.14-9.95,3.6c-1.65,2.61-2.42,5.06-2.79,8.1
		c-0.64,5.19-0.67,9.12-0.99,15.39C178.54,76.16,177.87,80.38,179.38,78.82z"/>
	<path class="st2" d="M45.48,71.71c0-6.09-0.44-11.93,0.66-17.86c1.14-6.11,5.75-12.36,14.64-12.29c2.49,0.02,6.22-0.2,8.67,0.18
		c6.75,1.03,9.94,6.2,13.35,9.33c1.42,1.3,1.98,6.17,2,8.28c0.08,8.98,0.44,17.86-0.24,26.38c-0.47,5.97-2.56,11.65-8.91,15.63
		c-2.38,1.49-4.31,2.23-8.62,2.65c-4.51,0.45-7.49-0.04-11.89-0.99c-5.33-1.16-9.44-5.96-9.52-11.46
		C45.52,85.06,45.48,77.8,45.48,71.71z M53.86,73.22c0.16,4.88,0.22,11.54,0.43,17.19c0.05,1.29,0.94,3.33,1.96,3.67
		c4.34,1.48,10.92,1.35,14.81-0.21c2.7-1.09,4.59-5.31,4.74-8.38c0.39-8.39,0.4-18.41,0.35-26.81c-0.03-4.55-2.81-6.72-7.17-8.52
		c-1.74-0.72-3.64-0.6-5.54-0.62c-5.92-0.05-8.24,2.32-9,7.53C53.65,62.41,53.69,68.09,53.86,73.22z"/>
	<path class="st2" d="M316.27,37.77c1.99,0.02,4.21,0.28,6.16,0.66c6.7,1.33,8.24,3.19,11.15,7.76c2.15,3.39,3.08,6.1,3.93,9.69
		c1.06,4.46-1.39,8.8-4.83,11.42c-5.88,4.47-11.55,8.57-17.45,13.01c-2.39,1.8-4.82,3.69-7.23,5.46c-3.02,2.22-3.09,5.34,0.03,7.2
		c1.19,0.71,4.51,2.16,6.79,2.05c5.49-0.26,12.25-3.06,16.45-5.81c0.68-0.45,2.18-2.64,2.69-3.29c1.91-2.46,4.62-2.61,6.53-1.23
		c1.8,1.3,1.95,4.37,0.32,6.82c-1.77,2.65-3.98,5.17-6.73,6.6c-5.94,3.1-11.13,6.04-20.08,5.62c-7.39-0.35-14.9-4.38-16.64-10.93
		c-0.93-3.48-1.15-6.56-1.14-10.17c0.02-6.56,0.52-13.75,0.79-20.31c0.23-5.65,1.04-10.83,3.98-15.74
		C304.16,41.29,307.96,37.71,316.27,37.77z M306.14,77.26c2.08-2.15,3.65-3.33,5.69-4.95c5.11-4.03,10.06-7.6,15.21-11.79
		c0.94-0.77,1.82-1.99,1.66-3.08c-0.85-5.73-4.31-10.19-9.62-10.8c-3.85-0.44-7.77,0.14-9.95,3.6c-1.65,2.61-2.42,5.06-2.79,8.1
		c-0.64,5.19-0.67,9.12-0.99,15.39C305.3,74.6,304.63,78.83,306.14,77.26z"/>
	<path class="st2" d="M442.84,37.77c1.99,0.02,4.21,0.28,6.16,0.66c6.7,1.33,8.24,3.19,11.15,7.76c2.15,3.39,3.08,6.1,3.93,9.69
		c1.06,4.46-1.39,8.8-4.83,11.42c-5.88,4.47-11.55,8.57-17.45,13.01c-2.39,1.8-4.82,3.69-7.23,5.46c-3.02,2.22-3.09,5.34,0.03,7.2
		c1.19,0.71,4.51,2.16,6.79,2.05c5.49-0.26,12.25-3.06,16.45-5.81c0.68-0.45,2.18-2.64,2.69-3.29c1.91-2.46,4.62-2.61,6.53-1.23
		c1.8,1.3,1.95,4.37,0.32,6.82c-1.77,2.65-3.98,5.17-6.73,6.6c-5.94,3.1-11.13,6.04-20.08,5.62c-7.39-0.35-14.9-4.38-16.64-10.93
		c-0.93-3.48-1.15-6.56-1.14-10.17c0.02-6.56,0.52-13.75,0.79-20.31c0.23-5.65,1.04-10.83,3.98-15.74
		C430.73,41.29,434.53,37.71,442.84,37.77z M432.71,77.26c2.08-2.15,3.65-3.33,5.69-4.95c5.11-4.03,10.06-7.6,15.21-11.79
		c0.94-0.77,1.82-1.99,1.66-3.08c-0.85-5.73-4.31-10.19-9.62-10.8c-3.85-0.44-7.77,0.14-9.95,3.6c-1.65,2.61-2.42,5.06-2.79,8.1
		c-0.64,5.19-0.67,9.12-0.99,15.39C431.87,74.6,431.2,78.83,432.71,77.26z"/>
</g>
</svg>
