<?xml version="1.0" encoding="utf-8"?>
<!-- Generator: Adobe Illustrator 27.2.0, SVG Export Plug-In . SVG Version: 6.00 Build 0)  -->
<svg version="1.1" id="레이어_1_사본" xmlns="http://www.w3.org/2000/svg" xmlns:xlink="http://www.w3.org/1999/xlink" x="0px"
	 y="0px" viewBox="0 0 651.97 141.73" style="enable-background:new 0 0 651.97 141.73;" xml:space="preserve">
<style type="text/css">
	.st0{fill:#3C6712;}
	.st1{fill:#C4EE62;}
	.st2{fill:#EF842D;}
</style>
<path class="st0" d="M11.85,93.37c-0.61-4.29-0.34-8.68,0-13c0.65-8.21,1.97-11.07,2.67-16.74c1.33-10.74,4.67-18.13,13.17-26.7
	c6.01-6.06,11.93-12.76,17.78-18.97c4.37-4.64,8.95-8.34,15.08-10.55c1.78-0.64,3.45-1.7,5.31-2.05c1.8-0.34,3.68-0.25,5.5,0
	c6.27,0.87,12.41,2.36,18.61,3.59c3.77,0.75,7.46,2,11.26,2.43c10.1,1.16,18.35,5.16,24.02,13.94
	c8.23,12.75,12.13,26.75,13.19,41.64c0.18,2.49-0.09,8.66-0.15,9.07c-0.99,6.13-2.29,12.13-4.99,17.83
	c-3.68,7.76-8.77,14.35-14.81,20.42c-4.54,4.56-9.31,8.4-14.27,12.19c-7.38,5.63-15.77,8.6-25.2,8.3
	c-4.49-0.14-9.03,0.21-13.52,0.27c-0.73,0.01-7.43,0.27-8.95,0.19c-6.58-0.33-11-2.07-15.3-5.18c-7.76-5.62-14.87-11.14-20.53-19.14
	c-3.12-4.41-6.97-7.76-8.02-13.33C12.5,96.64,11.99,94.36,11.85,93.37z"/>
<path class="st1" d="M67.19,126.16c-14.65,0-35.18-5.68-43.14-21.22c-2.3-4.48-2.86-9.38-3.92-14.4c-1.48-7.09-0.63-14.62,0.4-21.74
	c0.91-6.23,4.17-11.52,7.05-16.95c2.94-5.55,7.15-10.14,11.94-14.11c13.91-11.55,22.44-22.3,42.5-17.28
	c5.07,1.27,11.38,2.34,16.11,4.4c6.2,2.7,11.18,5.78,16.83,9.54c9.42,6.27,13.55,15.89,16.01,26.62c2.36,10.27,1.43,20.1-2.03,29.88
	c-3.17,8.99-10.14,14.88-16.96,20.86c-7.85,6.86-18.21,9.97-27.94,12.52C78.39,125.75,67.44,126.16,67.19,126.16z"/>
<path class="st0" d="M136.9,93.37c-0.61-4.29-0.34-8.68,0-13c0.65-8.21,1.97-11.07,2.67-16.74c1.33-10.74,4.67-18.13,13.17-26.7
	c6.01-6.06,11.93-12.76,17.78-18.97c4.37-4.64,8.95-8.34,15.08-10.55c1.78-0.64,3.45-1.7,5.31-2.05c1.8-0.34,3.68-0.25,5.5,0
	c6.27,0.87,12.41,2.36,18.61,3.59c3.77,0.75,7.46,2,11.26,2.43c10.1,1.16,18.35,5.16,24.02,13.94
	c8.23,12.75,12.13,26.75,13.19,41.64c0.18,2.49-0.09,8.66-0.15,9.07c-0.99,6.13-2.29,12.13-4.99,17.83
	c-3.68,7.76-8.77,14.35-14.81,20.42c-4.54,4.56-9.31,8.4-14.27,12.19c-7.38,5.63-15.77,8.6-25.2,8.3
	c-4.49-0.14-9.03,0.21-13.52,0.27c-0.73,0.01-7.43,0.27-8.95,0.19c-6.58-0.33-11-2.07-15.3-5.18c-7.76-5.62-14.87-11.14-20.53-19.14
	c-3.12-4.41-6.97-7.76-8.02-13.33C137.55,96.64,137.04,94.36,136.9,93.37z"/>
<path class="st1" d="M192.24,126.16c-14.65,0-35.18-5.68-43.14-21.22c-2.3-4.48-2.86-9.38-3.92-14.4
	c-1.48-7.09-0.63-14.62,0.4-21.74c0.91-6.23,4.17-11.52,7.05-16.95c2.94-5.55,7.15-10.14,11.94-14.11
	c13.91-11.55,22.44-22.3,42.5-17.28c5.07,1.27,11.38,2.34,16.11,4.4c6.2,2.7,11.18,5.78,16.83,9.54
	c9.42,6.27,13.55,15.89,16.01,26.62c2.36,10.27,1.43,20.1-2.03,29.88c-3.17,8.99-10.14,14.88-16.96,20.86
	c-7.85,6.86-18.21,9.97-27.94,12.52C203.44,125.75,192.49,126.16,192.24,126.16z"/>
<path class="st0" d="M262.84,93.37c-0.61-4.29-0.34-8.68,0-13c0.65-8.21,1.97-11.07,2.67-16.74c1.33-10.74,4.67-18.13,13.17-26.7
	c6.01-6.06,11.93-12.76,17.78-18.97c4.37-4.64,8.95-8.34,15.08-10.55c1.78-0.64,3.45-1.7,5.31-2.05c1.8-0.34,3.68-0.25,5.5,0
	c6.27,0.87,12.41,2.36,18.61,3.59c3.77,0.75,7.46,2,11.26,2.43c10.1,1.16,18.35,5.16,24.02,13.94
	c8.23,12.75,12.13,26.75,13.19,41.64c0.18,2.49-0.09,8.66-0.15,9.07c-0.99,6.13-2.29,12.13-4.99,17.83
	c-3.68,7.76-8.77,14.35-14.81,20.42c-4.54,4.56-9.31,8.4-14.27,12.19c-7.38,5.63-15.77,8.6-25.2,8.3
	c-4.49-0.14-9.03,0.21-13.52,0.27c-0.73,0.01-7.43,0.27-8.95,0.19c-6.58-0.33-11-2.07-15.3-5.18c-7.76-5.62-14.87-11.14-20.53-19.14
	c-3.12-4.41-6.97-7.76-8.02-13.33C263.49,96.64,262.98,94.36,262.84,93.37z"/>
<path class="st1" d="M318.18,126.16c-14.65,0-35.18-5.68-43.14-21.22c-2.3-4.48-2.86-9.38-3.92-14.4
	c-1.48-7.09-0.63-14.62,0.4-21.74c0.91-6.23,4.17-11.52,7.05-16.95c2.94-5.55,7.15-10.14,11.94-14.11
	c13.91-11.55,22.44-22.3,42.5-17.28c5.07,1.27,11.38,2.34,16.11,4.4c6.2,2.7,11.18,5.78,16.83,9.54
	c9.42,6.27,13.55,15.89,16.01,26.62c2.36,10.27,1.43,20.1-2.03,29.88c-3.17,8.99-10.14,14.88-16.96,20.86
	c-7.85,6.86-18.21,9.97-27.94,12.52C329.38,125.75,318.43,126.16,318.18,126.16z"/>
<path class="st0" d="M388.15,93.37c-0.61-4.29-0.34-8.68,0-13c0.65-8.21,1.97-11.07,2.67-16.74c1.33-10.74,4.67-18.13,13.17-26.7
	c6.01-6.06,11.93-12.76,17.78-18.97c4.37-4.64,8.95-8.34,15.08-10.55c1.78-0.64,3.45-1.7,5.31-2.05c1.8-0.34,3.68-0.25,5.5,0
	c6.27,0.87,12.41,2.36,18.61,3.59c3.77,0.75,7.46,2,11.26,2.43c10.1,1.16,18.35,5.16,24.02,13.94
	c8.23,12.75,12.13,26.75,13.19,41.64c0.18,2.49-0.09,8.66-0.15,9.07c-0.99,6.13-2.29,12.13-4.99,17.83
	c-3.68,7.76-8.77,14.35-14.81,20.42c-4.54,4.56-9.31,8.4-14.27,12.19c-7.38,5.63-15.77,8.6-25.2,8.3
	c-4.49-0.14-9.03,0.21-13.52,0.27c-0.73,0.01-7.43,0.27-8.95,0.19c-6.58-0.33-11-2.07-15.3-5.18c-7.76-5.62-14.87-11.14-20.53-19.14
	c-3.12-4.41-6.97-7.76-8.02-13.33C388.8,96.64,388.29,94.36,388.15,93.37z"/>
<path class="st1" d="M443.49,126.16c-14.65,0-35.18-5.68-43.14-21.22c-2.3-4.48-2.86-9.38-3.92-14.4
	c-1.48-7.09-0.63-14.62,0.4-21.74c0.91-6.23,4.17-11.52,7.05-16.95c2.94-5.55,7.15-10.14,11.94-14.11
	c13.91-11.55,22.44-22.3,42.5-17.28c5.07,1.27,11.38,2.34,16.11,4.4c6.2,2.7,11.18,5.78,16.83,9.54
	c9.42,6.27,13.55,15.89,16.01,26.62c2.36,10.27,1.43,20.1-2.03,29.88c-3.17,8.99-10.14,14.88-16.96,20.86
	c-7.85,6.86-18.21,9.97-27.94,12.52C454.69,125.75,443.74,126.16,443.49,126.16z"/>
<path class="st0" d="M513.83,93.37c-0.61-4.29-0.34-8.68,0-13c0.65-8.21,1.97-11.07,2.67-16.74c1.33-10.74,4.67-18.13,13.17-26.7
	c6.01-6.06,11.93-12.76,17.78-18.97c4.37-4.64,8.95-8.34,15.08-10.55c1.78-0.64,3.45-1.7,5.31-2.05c1.8-0.34,3.68-0.25,5.5,0
	c6.27,0.87,12.41,2.36,18.61,3.59c3.77,0.75,7.46,2,11.26,2.43c10.1,1.16,18.35,5.16,24.02,13.94
	c8.23,12.75,12.13,26.75,13.19,41.64c0.18,2.49-0.09,8.66-0.15,9.07c-0.99,6.13-2.29,12.13-4.99,17.83
	c-3.68,7.76-8.77,14.35-14.81,20.42c-4.54,4.56-9.31,8.4-14.27,12.19c-7.38,5.63-15.77,8.6-25.2,8.3
	c-4.49-0.14-9.03,0.21-13.52,0.27c-0.73,0.01-7.43,0.27-8.95,0.19c-6.58-0.33-11-2.07-15.3-5.18c-7.76-5.62-14.87-11.14-20.53-19.14
	c-3.12-4.41-6.97-7.76-8.02-13.33C514.48,96.64,513.97,94.36,513.83,93.37z"/>
<path class="st1" d="M569.17,126.16c-14.65,0-35.18-5.68-43.14-21.22c-2.3-4.48-2.86-9.38-3.92-14.4
	c-1.48-7.09-0.63-14.62,0.4-21.74c0.91-6.23,4.17-11.52,7.05-16.95c2.94-5.55,7.15-10.14,11.94-14.11
	c13.91-11.55,22.44-22.3,42.5-17.28c5.07,1.27,11.38,2.34,16.11,4.4c6.2,2.7,11.18,5.78,16.83,9.54
	c9.42,6.27,13.55,15.89,16.01,26.62c2.36,10.27,1.43,20.1-2.03,29.88c-3.17,8.99-10.14,14.88-16.96,20.86
	c-7.85,6.86-18.21,9.97-27.94,12.52C580.37,125.75,569.42,126.16,569.17,126.16z"/>
<g>
	<g>
		<path class="st2" d="M561,103.78c-4.81,0.03-12.2,0.33-18.6,0.32c-3.06,0-5.66-2.37-4.48-5.82c0.58-1.71,2.08-2.63,4.01-2.78
			c5.18-0.41,9.51-0.19,14.08-0.35c1.74-0.06,2.26-0.49,2.59-2.05c0.46-2.18,0.87-4.29,1.11-6.51c0.35-3.31,0.57-6.67,0.85-9.98
			c0.17-2.04-0.46-2.71-2.53-2.59c-3.98,0.23-6.82,0.53-12.03,0.47c-3.09-0.03-4.88-1.48-4.96-3.82c-0.08-2.35,1.91-4.24,4.67-4.36
			c5.32-0.23,11.18-0.18,16.29-0.35c5.22-0.17,10.75-0.88,15.95-1.45c2.25-0.25,3.75,1.36,4.08,3.28c0.32,1.83-1.58,4.27-3.76,4.74
			c-2.66,0.57-5.11,0.81-7.83,0.92c-2.17,0.08-2.33,0.78-2.4,2.68c-0.2,5.73-0.09,10.93-0.73,17.12c-0.18,1.72,0.18,2.37,1.89,2.31
			c6.92-0.25,12.71-0.98,19.07-1.52c1.81-0.15,3.63,0.83,4.04,2.65c0.42,1.86-0.95,3.88-2.72,4.48c-2.1,0.72-4.65,1.26-6.85,1.45
			C575.89,103.24,570.7,103.72,561,103.78z"/>
		<path class="st2" d="M160.48,80.28c0.02-10.47,2.02-17.06,3.31-25.66c0.16-1.05,0.98-2.94,1.37-3.93
			c1.43-3.57,7.44-2.32,6.82,2.51c-0.5,3.94-1.37,7.04-1.71,10.99c-0.66,7.74-2.23,18.33,0.24,25.63
			c1.67,4.95,4.03,9.38,10.09,11.53c1.69,0.6,1.82-0.37,3.28-1.83c4.14-4.14,9.73,0.69,6.73,5.59c-3.35,5.46-7.08,7.07-13.01,4.67
			C163.39,104.03,160.46,90.14,160.48,80.28z"/>
		<path class="st2" d="M221.24,47.14c11.08,0,14.43,8.3,14.92,14.83c0.43,5.71,1,10.2,1.23,15.92c0.08,2.06-0.17,4.7-1.04,6.63
			c-1.18,2.61-3.69,3.6-6.21,2.7c-2.59-0.92-2.43-3.4-1.89-5.45c1.14-4.31,0.43-8.57,0-14.06c-0.18-2.31-0.34-5.99-0.81-8.25
			c-0.97-4.65-5.31-4.43-8.29-4.45c-3.01-0.03-4.35-2.12-4.22-4.31C215.16,47.31,218.99,47.14,221.24,47.14z"/>
		<path class="st2" d="M422.65,57.42c-1.26,0.26-2.94,0.11-3.88-0.52c-2.48-1.65-2.32-6.18,1.66-7.01
			c9.71-2.04,19.14-3.36,29.08-3.93c5.77-0.33,11.65-0.52,17.43-0.15c9.92,0.64,12.92,5.02,13.55,15.12
			c1.11,17.86-14.49,37.04-31.31,43.06c-3.05,1.09-7.78,0.95-8.48-2.65c-0.4-2.09,1.33-4.5,3.79-5.16
			c14.02-3.79,26.84-19.44,27.38-33.92c0.08-2.01-0.18-4.36-1.06-6.15c-0.5-1.03-2.43-1.4-3.77-1.57c-3.33-0.44-9.13-0.8-12.74-0.52
			C452.46,54.16,434.64,54.91,422.65,57.42z"/>
		<path class="st2" d="M305.56,63.54c-4.53-0.1-10.63,1.04-10.64-4.03c0-2.61,1.48-3.27,4.14-3.43c4.29-0.26,9.66-0.51,13.94-0.56
			c1.17-0.01,0.95,0.18,0.93-1.36c-0.05-3.83,0.16-8.72,0.09-12.55c-0.09-5.5,7.39-5.49,7.48,0c0.06,3.66,0.37,7.24,0.43,10.89
			c0.03,1.64-0.52,2.2,1.09,2.08c5.47-0.39,11.7-0.99,17.34-1.33c8.27-0.49,11.66,3.76,13.64,10.28c2.28,7.5,1.69,15.82,0.33,23.4
			c-0.58,3.25-0.97,5.69-2.13,8.76c-1.19,3.14-4.26,5.4-8.48,4.78c-1.24-0.18-3.12-1.66-3.39-2.75c-0.31-1.23-0.78-3.36,1.68-4.59
			c2.39-1.19,2.85-2.18,3.22-4.45c1.13-6.89,2.31-14.11,0.71-21.13c-1.08-4.72-1.37-6.1-6.11-5.59c-5.31,0.57-10.93,0.8-16.25,1.04
			c-1.65,0.08-1.92,1.09-2.02,2.28c-0.28,3.48-0.5,6.74-0.82,10.21c-0.87,9.46-3.57,19.33-8.95,26.92
			c-2.78,3.92-9.44,0.16-6.85-4.67c1.26-2.34,2.6-5.21,3.68-7.64c3.33-7.48,3.83-14.91,4.67-22.93c0.4-3.84,0.38-3.69-0.5-3.69
			C311.31,63.49,305.83,63.54,305.56,63.54z"/>
		<path class="st2" d="M42.48,90.58C43.1,79.09,44.7,75.14,57.25,69.6c2.07-0.91,3.09-0.36,2.49-3.46
			c-0.89-4.61-0.09-4.64-2.24-4.17c-2.42,0.53-7.93,0.85-10.42,0.92c-5.59,0.16-5.64-7.98-0.76-8.31c2.66-0.18,6.03-0.45,8.68-0.69
			c3.33-0.31,3.33-0.51,3.06-1.67c-0.33-1.45-1.61-5.98-2.46-7.2c-0.51-0.73-0.79-2.65-0.6-3.76c0.16-0.93,0.47-3.05,2.72-3.22
			c2.91-0.22,3.06,0.76,3.95,1.8c1.8,2.12,3.11,7.49,3.88,9.82c0.42,1.27,0.36,3.03,1.49,2.97c2.07-0.12,7.35-1.01,9.37-1.07
			c1.99-0.06,3.36,0.3,4.04,2.49c0.58,1.86-0.88,4.54-3.06,5.12c-2.15,0.57-5.97,0.95-8.18,1.26c-1.62,0.23-1.77-0.12-1.5,3.04
			c0.31,3.59-0.15,3.78,3.08,4.12c16.15,1.71,22.94,9.91,24.98,20.8c0.81,4.34-0.48,9.58-3.09,13.07c-1.86,2.49-3.93,4.93-5.96,7.12
			c-1.86,2-6.03,2.21-7.29,0.28c-3.17-4.83,1.75-7.45,4.31-10.23c4.56-4.95,4.36-10.23,0.81-15.25c-3.37-4.76-8.24-6.42-14.12-6.84
			c-1.93-0.14-1.36,0.07-1.49,1.94c-0.33,4.55-0.5,9.38-1.35,13.86c-1.52,7.96-3.9,18.03-15.35,16.67
			C45.46,108.2,42.1,97.59,42.48,90.58z M60.05,79.4c0.01-0.32,0-1.28-1.04-0.99c-1.93,0.53-3.83,1.62-5.17,3.07
			c-3.1,3.33-3.45,10.86-1.41,16.92c0.28,0.83,0.57,2.15,1.9,2.15c1.37,0,1.8-1.04,2.17-1.87C59.47,92.13,59.81,87.17,60.05,79.4z"
			/>
		<path class="st2" d="M102.49,54.18c0.5,6.13-8.01,7.51-8.36,0.88c-0.12-2.3,0.17-3.54-2.46-5.27c-4.83-3.2-0.76-10.64,4.83-6.54
			C100.1,45.89,102.15,50,102.49,54.18z"/>
	</g>
</g>
</svg>
