<?xml version="1.0" encoding="utf-8"?>
<!-- Generator: Adobe Illustrator 27.2.0, SVG Export Plug-In . SVG Version: 6.00 Build 0)  -->
<svg version="1.1" id="레이어_1_사본" xmlns="http://www.w3.org/2000/svg" xmlns:xlink="http://www.w3.org/1999/xlink" x="0px"
	 y="0px" viewBox="0 0 510.24 141.73" style="enable-background:new 0 0 510.24 141.73;" xml:space="preserve">
<style type="text/css">
	.st0{fill:#3C6712;}
	.st1{fill:#C4EE62;}
	.st2{fill:#EF842D;}
</style>
<g>
	<path class="st0" d="M3.47,94.04c-0.61-4.29-0.34-8.68,0-13c0.65-8.21,1.97-11.07,2.67-16.74c1.33-10.74,4.67-18.13,13.17-26.7
		c6.01-6.06,11.93-12.76,17.78-18.97c4.37-4.64,8.95-8.34,15.08-10.55c1.78-0.64,3.45-1.7,5.31-2.05c1.8-0.34,3.68-0.25,5.5,0
		c6.27,0.87,12.41,2.36,18.61,3.59c3.77,0.75,7.46,2,11.26,2.43c10.1,1.16,18.35,5.16,24.02,13.94
		c8.23,12.75,12.13,26.75,13.19,41.64c0.18,2.49-0.09,8.66-0.15,9.07c-0.99,6.13-2.29,12.13-4.99,17.83
		c-3.68,7.76-8.77,14.35-14.81,20.42c-4.54,4.56-9.31,8.4-14.27,12.19c-7.38,5.63-15.77,8.6-25.2,8.3
		c-4.49-0.14-9.03,0.21-13.52,0.27c-0.73,0.01-7.43,0.27-8.95,0.19c-6.58-0.33-11-2.07-15.3-5.18
		c-7.76-5.62-14.87-11.14-20.53-19.14c-3.12-4.41-6.97-7.76-8.02-13.33C4.12,97.31,3.61,95.03,3.47,94.04z"/>
	<path class="st1" d="M58.81,126.83c-14.65,0-35.18-5.68-43.14-21.22c-2.3-4.48-2.86-9.38-3.92-14.4
		c-1.48-7.09-0.63-14.62,0.4-21.74c0.91-6.23,4.17-11.52,7.05-16.95c2.94-5.55,7.15-10.14,11.94-14.11
		c13.91-11.55,22.44-22.3,42.5-17.28c5.07,1.27,11.38,2.34,16.11,4.4c6.2,2.7,11.18,5.78,16.83,9.54
		c9.42,6.27,13.55,15.89,16.01,26.62c2.36,10.27,1.43,20.1-2.03,29.88c-3.17,8.99-10.14,14.88-16.96,20.86
		c-7.85,6.86-18.21,9.97-27.94,12.52C70.01,126.42,59.06,126.83,58.81,126.83z"/>
	<path class="st0" d="M128.43,94.04c-0.61-4.29-0.34-8.68,0-13c0.65-8.21,1.97-11.07,2.67-16.74c1.33-10.74,4.67-18.13,13.17-26.7
		c6.01-6.06,11.93-12.76,17.78-18.97c4.37-4.64,8.95-8.34,15.08-10.55c1.78-0.64,3.45-1.7,5.31-2.05c1.8-0.34,3.68-0.25,5.5,0
		c6.27,0.87,12.41,2.36,18.61,3.59c3.77,0.75,7.46,2,11.26,2.43c10.1,1.16,18.35,5.16,24.02,13.94
		c8.23,12.75,12.13,26.75,13.19,41.64c0.18,2.49-0.09,8.66-0.15,9.07c-0.99,6.13-2.29,12.13-4.99,17.83
		c-3.68,7.76-8.77,14.35-14.81,20.42c-4.54,4.56-9.31,8.4-14.27,12.19c-7.38,5.63-15.77,8.6-25.2,8.3
		c-4.49-0.14-9.03,0.21-13.52,0.27c-0.73,0.01-7.43,0.27-8.95,0.19c-6.58-0.33-11-2.07-15.3-5.18
		c-7.76-5.62-14.87-11.14-20.53-19.14c-3.12-4.41-6.97-7.76-8.02-13.33C129.08,97.31,128.57,95.03,128.43,94.04z"/>
	<path class="st1" d="M183.77,126.83c-14.65,0-35.18-5.68-43.14-21.22c-2.3-4.48-2.86-9.38-3.92-14.4
		c-1.48-7.09-0.63-14.62,0.4-21.74c0.91-6.23,4.17-11.52,7.05-16.95c2.94-5.55,7.15-10.14,11.94-14.11
		c13.91-11.55,22.44-22.3,42.5-17.28c5.07,1.27,11.38,2.34,16.11,4.4c6.2,2.7,11.18,5.78,16.83,9.54
		c9.42,6.27,13.55,15.89,16.01,26.62c2.36,10.27,1.43,20.1-2.03,29.88c-3.17,8.99-10.14,14.88-16.96,20.86
		c-7.85,6.86-18.21,9.97-27.94,12.52C194.97,126.42,184.02,126.83,183.77,126.83z"/>
	<path class="st0" d="M254.24,94.04c-0.61-4.29-0.34-8.68,0-13c0.65-8.21,1.97-11.07,2.67-16.74c1.33-10.74,4.67-18.13,13.17-26.7
		c6.01-6.06,11.93-12.76,17.78-18.97c4.37-4.64,8.95-8.34,15.08-10.55c1.78-0.64,3.45-1.7,5.31-2.05c1.8-0.34,3.68-0.25,5.5,0
		c6.27,0.87,12.41,2.36,18.61,3.59c3.77,0.75,7.46,2,11.26,2.43c10.1,1.16,18.35,5.16,24.02,13.94
		c8.23,12.75,12.13,26.75,13.19,41.64c0.18,2.49-0.09,8.66-0.15,9.07c-0.99,6.13-2.29,12.13-4.99,17.83
		c-3.68,7.76-8.77,14.35-14.81,20.42c-4.54,4.56-9.31,8.4-14.27,12.19c-7.38,5.63-15.77,8.6-25.2,8.3
		c-4.49-0.14-9.03,0.21-13.52,0.27c-0.73,0.01-7.43,0.27-8.95,0.19c-6.58-0.33-11-2.07-15.3-5.18
		c-7.76-5.62-14.87-11.14-20.53-19.14c-3.12-4.41-6.97-7.76-8.02-13.33C254.89,97.31,254.38,95.03,254.24,94.04z"/>
	<path class="st1" d="M309.58,126.83c-14.65,0-35.18-5.68-43.14-21.22c-2.3-4.48-2.86-9.38-3.92-14.4
		c-1.48-7.09-0.63-14.62,0.4-21.74c0.91-6.23,4.17-11.52,7.05-16.95c2.94-5.55,7.15-10.14,11.94-14.11
		c13.91-11.55,22.44-22.3,42.5-17.28c5.07,1.27,11.38,2.34,16.11,4.4c6.2,2.7,11.18,5.78,16.83,9.54
		c9.42,6.27,13.55,15.89,16.01,26.62c2.36,10.27,1.43,20.1-2.03,29.88c-3.17,8.99-10.14,14.88-16.96,20.86
		c-7.85,6.86-18.21,9.97-27.94,12.52C320.78,126.42,309.83,126.83,309.58,126.83z"/>
	<path class="st0" d="M380.18,94.04c-0.61-4.29-0.34-8.68,0-13c0.65-8.21,1.97-11.07,2.67-16.74c1.33-10.74,4.67-18.13,13.17-26.7
		c6.01-6.06,11.93-12.76,17.78-18.97c4.37-4.64,8.95-8.34,15.08-10.55c1.78-0.64,3.45-1.7,5.31-2.05c1.8-0.34,3.68-0.25,5.5,0
		c6.27,0.87,12.41,2.36,18.61,3.59c3.77,0.75,7.46,2,11.26,2.43c10.1,1.16,18.35,5.16,24.02,13.94
		c8.23,12.75,12.13,26.75,13.19,41.64c0.18,2.49-0.09,8.66-0.15,9.07c-0.99,6.13-2.29,12.13-4.99,17.83
		c-3.68,7.76-8.77,14.35-14.81,20.42c-4.54,4.56-9.31,8.4-14.27,12.19c-7.38,5.63-15.77,8.6-25.2,8.3
		c-4.49-0.14-9.03,0.21-13.52,0.27c-0.73,0.01-7.43,0.27-8.95,0.19c-6.58-0.33-11-2.07-15.3-5.18
		c-7.76-5.62-14.87-11.14-20.53-19.14c-3.12-4.41-6.97-7.76-8.02-13.33C380.83,97.31,380.32,95.03,380.18,94.04z"/>
	<path class="st1" d="M435.52,126.83c-14.65,0-35.18-5.68-43.14-21.22c-2.3-4.48-2.86-9.38-3.92-14.4
		c-1.48-7.09-0.63-14.62,0.4-21.74c0.91-6.23,4.17-11.52,7.05-16.95c2.94-5.55,7.15-10.14,11.94-14.11
		c13.91-11.55,22.44-22.3,42.5-17.28c5.07,1.27,11.38,2.34,16.11,4.4c6.2,2.7,11.18,5.78,16.83,9.54
		c9.42,6.27,13.55,15.89,16.01,26.62c2.36,10.27,1.43,20.1-2.03,29.88c-3.17,8.99-10.14,14.88-16.96,20.86
		c-7.85,6.86-18.21,9.97-27.94,12.52C446.72,126.42,435.77,126.83,435.52,126.83z"/>
	<g>
		<path class="st2" d="M473.19,84.29c-0.4-8.89,0.01-17.81,0-26.71c-0.01-5.94-2.66-10.72-6.75-14.78
			c-2.03-2.02-4.52-2.14-5.99-0.57c-1.41,1.5-1.04,3.59,0.93,5.71c2.76,2.96,4.34,6.35,4.31,10.54c-0.1,11.41,0.02,22.82-0.08,34.22
			c-0.02,2.21-0.48,4.44-0.92,6.62c-0.6,2.92-1.5,5.77-2.05,8.7c-0.36,1.95,0.7,3.45,2.52,4.12c1.93,0.71,3.51-0.21,4.45-1.84
			c0.86-1.49,1.45-3.16,2.03-4.79C474.09,98.61,473.52,91.47,473.19,84.29z M461.83,81.15c0.01-3.54-0.29-6.87-0.72-10.16
			c-0.46-3.53-1.87-6.7-4.59-9.18c-1.49-1.36-3.17-1.7-4.74-0.48c-1.69,1.32-1.83,3.24-0.54,4.89c2.66,3.4,2.75,7.36,2.93,11.36
			c0.08,1.86-0.78,2.55-2.46,2.65c-3.32,0.19-6.64,0.42-9.96,0.59c-2.72,0.14-4.59,1.56-4.58,3.55c0.01,1.96,1.98,3.5,4.67,3.49
			c2.91-0.02,5.82-0.12,8.72-0.28c2.7-0.14,3.27,0.4,2.85,3.12c-0.35,2.29-0.76,4.57-1.17,6.84c-0.42,2.34,0.56,4.37,2.59,5.08
			c2.27,0.8,3.7-0.56,4.72-2.26c0.62-1.03,1.03-2.3,1.14-3.5C461.15,91.55,461.82,86.26,461.83,81.15z"/>
		<path class="st2" d="M310.51,89.7c-0.1,5.37-0.92,11.63-1.86,18.19c-0.4,2.81-2.65,5.35-5.54,4.69c-2.25-0.52-3.5-3.24-3.08-5.97
			c0.44-2.87,0.78-6.42,1.23-9.28c0.41-2.62,0.53-2.96-1.96-2.75c-3.1,0.26-7.2,0.54-11.97,0.57c-0.96,0.01-2.78-0.34-3.66-0.73
			c-1.73-0.76-2.25-3.41-1.52-5.08c0.48-1.1,2.02-2.19,3.22-2.21c4.71-0.09,9.51-0.03,14.15-0.51c2.09-0.21,2.67-0.24,2.46-2.24
			c-0.03-0.33-0.1-1.32-0.16-1.64c-0.91-4.84-1.17-5.02-2.75-5.08c-4.61-0.19-11.47,1.09-15.16,1.51c-4.49,0.51-5.89-1.44-6.03-3.5
			c-0.16-2.31,1.69-3.8,4.77-4.33c4.49-0.77,9.11-1.62,13.64-2.05c8.56-0.82,12.41,2.97,13.71,10.93
			C310.45,82.91,310.59,85.64,310.51,89.7z"/>
		<path class="st2" d="M340.43,85.05c0.16,3,0.55,5.9,0.53,8.87c-0.03,3.66-0.28,7.29-0.47,10.94c-0.13,2.68-2.23,4.92-4.57,4.76
			c-2.22-0.15-3.88-2.32-3.88-5c-0.02-7.81,0.09-15.75-0.07-23.56c-0.11-5.31-0.74-9.83-1.11-15.13c-0.23-3.25-1.31-5.7-4.11-7.29
			c-1.01-0.57-2.55-1.48-3.41-2.24c-1.34-1.19-2.78-3.25-1.36-5.59c1.18-1.94,3.33-1.98,5.27-1.07c5.99,2.82,10.96,6.54,11.75,13.99
			c0.36,3.38,0.89,7,0.92,10.39c0.02,2.6-0.07,3.06,1.17,2.98c3.82-0.23,9.9,0.05,13.73,0.07c2.65,0.01,3.99,1.21,4.07,3.29
			c0.08,2.02-1.03,4.01-3.48,4.36c-3.29,0.47-9.43,0.4-13.59,0.26C341.26,85.06,340.4,84.44,340.43,85.05z"/>
		<path class="st2" d="M173.59,105.54c-9.03,0-17.69-6.35-19.31-14.08c-0.93-4.44-0.28-10.23,1.8-14.26
			c2.32-4.5,4.12-6.54,7.58-10.23c2.63-2.81,5.65-3.58,9.33-4.26c1.71-0.32,3.91-0.37,5.64-0.47c6.35-0.38,10.81,4.63,13.15,9.33
			c3.28,6.58,3.21,16.67-0.63,24.51C187.84,102.82,181.12,105.53,173.59,105.54z M173.87,96.62c6.54-0.11,9.65-2.36,10.87-8.48
			c0.49-2.42,0.94-5.3,0.52-7.72c-0.7-4.04-1.42-7.4-5.97-9.05c-4.25-1.54-8.07-0.88-10.85,2.56c-1.66,2.05-3.11,4.07-4.36,6.39
			C159.78,88.38,164.11,96.77,173.87,96.62z"/>
		<path class="st2" d="M219.57,77.56c0.04,8.01,0.36,12.99,0.35,18.98c0,1.08-0.2,2.4-0.32,3.47c-0.22,2.14-1.96,4.02-4.07,4.11
			c-2.24,0.09-4.08-1.68-4.29-3.92c-0.29-3.06-0.33-6.34-0.3-9.41c0.04-4.39-0.12-12.86,0.05-17.24c0.23-6.2,1.47-15.11-1.94-25.63
			c-0.41-1.26-0.96-3.25-1.61-4.41c-1.42-2.51-0.71-4.57,0.95-5.49c1.74-0.97,4.79-0.43,5.87,1.8c1.66,3.41,3.3,7.76,4.17,11.94
			c0.87,4.19,0.79,8.58,0.95,12.88C219.54,69.21,219.57,76.96,219.57,77.56z"/>
		<path class="st2" d="M408.6,101.02c-1.24-0.01-2.74,0.1-3.98,0c-4-0.33-6.72-4.47-3.13-7.25c0.61-0.47,0.46-3.25,0.54-5.27
			c0.17-4.3-0.35-8.81,0.35-13.23c0.37-2.38,0.01-2.14-1.61-2.18c-3.92-0.09-5.65-2.89-5.37-4.99c0.22-1.67,1.58-3.47,4.36-3.47
			c8.56,0,19.55,0.4,28.03,0.37c1.84-0.01,3.33,0.71,3.6,2.77c0.27,2.09-0.38,4.05-2.58,4.59c-1.84,0.45-3.53,0.49-5.42,0.66
			c-0.91,0.08-2.63-0.38-2.84,1.28c-0.72,5.7-1.33,12.51-0.85,15.25c0.45,2.64-0.29,3.55,1.09,3.55c1.98,0,7.36-0.13,9.36-0.04
			c2.04,0.09,3.16,1.49,3.29,3.27c0.14,1.91-0.81,3.6-3.51,4.41c-1.35,0.4-3.22,0.4-4.74,0.38
			C424.44,101.11,413.5,101.06,408.6,101.02z M410.9,92.59c0.72-0.01,0.56-1.39,0.54-1.94c-0.19-9.52,0.24-9.95,1.04-15.42
			c0.08-0.56,0.9-1.87,0.29-2.09c-0.69-0.26-1.78,0.01-2.14,0.53c-0.43,0.62-0.69,1.68-0.69,2.49c0.03,4.81,0.28,9.62,0.4,14.42
			C410.37,91.29,410.38,92.59,410.9,92.59z"/>
		<path class="st2" d="M473.19,84.29c0.32,7.17,0.9,14.32-1.55,21.22c-0.58,1.64-1.16,3.3-2.03,4.79c-0.95,1.63-2.52,2.56-4.45,1.84
			c-1.82-0.67-2.88-2.17-2.52-4.12c0.54-2.93,1.45-5.78,2.05-8.7c0.45-2.18,0.91-4.41,0.92-6.62c0.09-11.41-0.02-22.82,0.08-34.22
			c0.04-4.19-1.55-7.58-4.31-10.54c-1.98-2.12-2.34-4.21-0.93-5.71c1.47-1.57,3.97-1.45,5.99,0.57c4.09,4.06,6.74,8.84,6.75,14.78
			C473.2,66.48,472.79,75.4,473.19,84.29z"/>
		<path class="st2" d="M461.83,81.15c-0.01,5.11-0.68,10.41-1.14,15.7c-0.11,1.2-0.52,2.47-1.14,3.5c-1.02,1.7-2.45,3.06-4.72,2.26
			c-2.03-0.71-3-2.74-2.59-5.08c0.41-2.28,0.82-4.56,1.17-6.84c0.42-2.72-0.15-3.26-2.85-3.12c-2.9,0.15-5.81,0.26-8.72,0.28
			c-2.68,0.02-4.65-1.53-4.67-3.49c-0.01-1.99,1.86-3.4,4.58-3.55c3.32-0.17,6.64-0.4,9.96-0.59c1.69-0.09,2.55-0.79,2.46-2.65
			c-0.18-4-0.28-7.96-2.93-11.36c-1.29-1.65-1.15-3.57,0.54-4.89c1.57-1.22,3.25-0.88,4.74,0.48c2.72,2.47,4.12,5.65,4.59,9.18
			C461.54,74.27,461.84,77.6,461.83,81.15z"/>
		<path class="st2" d="M92.94,101.87c-1.75-1.26-9.75,0.72-14.78,0.62c-3.15-0.07-6.85-0.58-9.34-0.76
			c-0.59-0.04-0.98-0.64-0.98-1.23V84.78c0-0.63,0.46-1.16,1.09-1.25c5.51-0.77,11.65-2.07,16.53-6.96
			c5.21-5.21,5.31-12.79,5.49-16.77c0.19-3.98-0.09-6.54-2.08-12.03c-1.99-5.49-9.85-8.53-15.92-8.53c-6.06,0-16.58,1.23-23.12,7.39
			s-7.39,11.94-7.58,16.86s1.8,6.92,4.55,12.03c2.27,4.22,9.77,7.03,12.31,7.88c0.51,0.17,0.86,0.65,0.86,1.19v15
			c0,0.66-0.7,1.37-1.17,1.43c-0.6,0.07-4.45-0.6-9.54-0.38c-2.18,0.09-10.14,0-11.94,1.04s-3.79,3.41-3.03,5.49
			c0.76,2.08,3.79,3.41,5.59,2.84c1.8-0.57,4.64-1.04,8.05-1.04s12.03,0.47,14.02,0.57c1.99,0.09,10.52,1.04,14.68,1.04
			s12.51-0.85,14.87-1.52c2.37-0.66,3.32-2.94,3.32-4.26C94.84,103.48,94.36,102.89,92.94,101.87z M55.36,72.06
			c-2.27-1.77-4.55-6.13-4.55-10.04c0-3.92,4.48-10.11,7.89-12s11.62-2.91,12.76-2.91s7.14,1.39,9.41,4.04s1.45,7.83,1.2,11.18
			s-0.57,5.87-4.61,9.22s-10.93,3.36-10.93,3.36C64.03,75.12,57.64,73.83,55.36,72.06z"/>
	</g>
</g>
</svg>
